# Blender v3.2.2 OBJ File: 'Floor.blend'
# www.blender.org
mtllib floor.mtl
o Cylinder
v 0.000000 0.000000 -1.000000
v 0.195090 0.000000 -0.980785
v 0.382683 0.000000 -0.923880
v 0.555570 0.000000 -0.831470
v 0.707107 0.000000 -0.707107
v 0.831470 0.000000 -0.555570
v 0.923880 0.000000 -0.382683
v 0.980785 0.000000 -0.195090
v 1.000000 0.000000 0.000000
v 0.980785 0.000000 0.195090
v 0.923880 0.000000 0.382683
v 0.831470 0.000000 0.555570
v 0.707107 0.000000 0.707107
v 0.555570 0.000000 0.831470
v 0.382683 0.000000 0.923880
v 0.195090 0.000000 0.980785
v -0.000000 0.000000 1.000000
v -0.195090 0.000000 0.980785
v -0.382683 0.000000 0.923880
v -0.555570 0.000000 0.831470
v -0.707107 0.000000 0.707107
v -0.831469 0.000000 0.555570
v -0.923880 0.000000 0.382684
v -0.980785 0.000000 0.195090
v -1.000000 0.000000 -0.000000
v -0.980785 0.000000 -0.195090
v -0.923879 0.000000 -0.382684
v -0.831470 0.000000 -0.555570
v -0.707107 0.000000 -0.707107
v -0.555570 0.000000 -0.831470
v -0.382683 0.000000 -0.923880
v -0.195090 0.000000 -0.980785
vt 0.985388 0.296822
vt 0.796822 0.014612
vt 0.514612 0.203178
vt 0.703178 0.485388
vt 0.750000 0.490000
vt 0.796822 0.485388
vt 0.841844 0.471731
vt 0.883337 0.449553
vt 0.919706 0.419706
vt 0.949553 0.383337
vt 0.971731 0.341844
vt 0.990000 0.250000
vt 0.985388 0.203178
vt 0.971731 0.158156
vt 0.949553 0.116663
vt 0.919706 0.080294
vt 0.883337 0.050447
vt 0.841844 0.028269
vt 0.750000 0.010000
vt 0.703178 0.014612
vt 0.658156 0.028269
vt 0.616663 0.050447
vt 0.580294 0.080294
vt 0.550447 0.116663
vt 0.528269 0.158156
vt 0.510000 0.250000
vt 0.514612 0.296822
vt 0.528269 0.341844
vt 0.550447 0.383337
vt 0.580294 0.419706
vt 0.616663 0.449553
vt 0.658156 0.471731
vn 0.0000 -1.0000 0.0000
usemtl Material
s off
f 8/1/1 16/2/1 24/3/1
f 32/4/1 1/5/1 2/6/1
f 2/6/1 3/7/1 4/8/1
f 4/8/1 5/9/1 6/10/1
f 6/10/1 7/11/1 8/1/1
f 8/1/1 9/12/1 10/13/1
f 10/13/1 11/14/1 12/15/1
f 12/15/1 13/16/1 14/17/1
f 14/17/1 15/18/1 16/2/1
f 16/2/1 17/19/1 18/20/1
f 18/20/1 19/21/1 20/22/1
f 20/22/1 21/23/1 22/24/1
f 22/24/1 23/25/1 24/3/1
f 24/3/1 25/26/1 26/27/1
f 26/27/1 27/28/1 24/3/1
f 27/28/1 28/29/1 24/3/1
f 28/29/1 29/30/1 30/31/1
f 30/31/1 31/32/1 28/29/1
f 31/32/1 32/4/1 28/29/1
f 32/4/1 2/6/1 8/1/1
f 2/6/1 4/8/1 8/1/1
f 4/8/1 6/10/1 8/1/1
f 8/1/1 10/13/1 12/15/1
f 12/15/1 14/17/1 8/1/1
f 14/17/1 16/2/1 8/1/1
f 16/2/1 18/20/1 24/3/1
f 18/20/1 20/22/1 24/3/1
f 20/22/1 22/24/1 24/3/1
f 24/3/1 28/29/1 32/4/1
f 32/4/1 8/1/1 24/3/1
